<?xml version="1.0" encoding="UTF-8"?>
<svg id="Layer_1" xmlns="http://www.w3.org/2000/svg" version="1.1" xmlns:i="http://ns.adobe.com/AdobeIllustrator/10.0/" viewBox="0 0 1003.3313 926.7768">
  <!-- Generator: Adobe Illustrator 30.1.0, SVG Export Plug-In . SVG Version: 2.1.1 Build 136)  -->
  <defs>
    <style>
      .st0 {
        fill: #ef3824;
      }
    </style>
  </defs>
  <path class="st0" d="M170.0445,340.089c42.1923,0,80.8046-15.3665,110.5403-40.8192,29.7194,25.4528,68.3317,40.8192,110.5404,40.8192s80.8046-15.3665,110.5403-40.8192c29.7194,25.4528,68.3317,40.8192,110.5404,40.8192s80.8046-15.3665,110.5403-40.8192c29.7194,25.4528,68.3317,40.8192,110.5404,40.8192,93.9152,0,170.0446-76.1293,170.0446-170.0445S927.202,0,833.2868,0C791.078,0,752.4821,15.3828,722.7464,40.8192,693.027,15.3664,654.4148,0,612.206,0s-80.8046,15.3828-110.5404,40.8192C471.9463,15.3664,433.334,0,391.1253,0s-80.8046,15.3828-110.5404,40.8192C250.8655,15.3664,212.2532,0,170.0445,0,76.1293,0,0,76.1294,0,170.0445s76.1293,170.0445,170.0445,170.0445ZM780.3379,44.6771c16.756-7.0784,34.5582-10.6747,52.9489-10.6747s36.1929,3.5964,52.9489,10.6747c16.2001,6.8495,30.7493,16.6579,43.2549,29.1636,12.5057,12.5057,22.3141,27.0547,29.1636,43.2549,7.0784,16.756,10.6748,34.5582,10.6748,52.9489s-3.5964,36.1929-10.6748,52.9489c-6.8495,16.2002-16.6579,30.7493-29.1636,43.2549-12.5057,12.5057-27.0547,22.314-43.2549,29.1636-16.756,7.0784-34.5582,10.6747-52.9489,10.6747s-36.1929-3.5964-52.9489-10.6747c-12.3077-5.2021-23.7773-12.1983-34.035-20.7611,22.5428-28.853,35.964-65.1603,35.964-104.6063s-13.4374-75.7534-35.964-104.6063c10.2661-8.566,21.6765-15.53,34.035-20.7611ZM722.7628,90.711c5.9172,8.2103,10.8909,17.061,14.827,26.3846,7.0784,16.756,10.6749,34.5582,10.6749,52.9489s-3.5964,36.1929-10.6749,52.9489c-3.9423,9.3257-8.9156,18.181-14.827,26.4009-5.9208-8.2139-10.8947-17.0703-14.827-26.4009-7.0784-16.7559-10.6748-34.5582-10.6748-52.9489s3.5964-36.1929,10.6748-52.9489c3.9426-9.3205,8.9158-18.1704,14.827-26.3846ZM559.2735,44.6935c16.756-7.0784,34.5582-10.6748,52.9489-10.6748s36.1929,3.5964,52.9489,10.6748c12.3749,5.2311,23.7689,12.1951,34.0515,20.761-22.5429,28.853-35.9641,65.1603-35.9641,104.6063s13.4374,75.7534,35.9641,104.6063c-10.2612,8.5665-21.7366,15.563-34.0515,20.7611-16.756,7.0784-34.5582,10.6748-52.9489,10.6748-18.3743,0-36.1929-3.5964-52.9489-10.6748-12.3098-5.1982-23.7798-12.1948-34.035-20.7611,22.5428-28.8529,35.9804-65.1603,35.9804-104.6063s-13.4374-75.7534-35.9804-104.6063c10.2661-8.566,21.6765-15.53,34.035-20.761ZM501.6984,90.711c5.9172,8.2103,10.8909,17.061,14.827,26.3846,7.0784,16.756,10.6749,34.5582,10.6749,52.9489s-3.5964,36.1929-10.6749,52.9489c-3.9423,9.3257-8.9156,18.181-14.827,26.4009-5.9208-8.2139-10.8947-17.0703-14.827-26.4009-7.0784-16.7559-10.6748-34.5582-10.6748-52.9489s3.5964-36.1929,10.6748-52.9489c3.9425-9.3205,8.9158-18.1704,14.827-26.3846ZM338.2091,44.6935c16.756-7.0784,34.5582-10.6748,52.9489-10.6748s36.1929,3.5964,52.9489,10.6748c12.3749,5.2311,23.769,12.1951,34.0514,20.761-22.543,28.853-35.9804,65.1603-35.9804,104.6063s13.4374,75.7534,35.9804,104.6063c-10.2611,8.5665-21.7366,15.563-34.0514,20.7611-16.756,7.0784-34.5582,10.6748-52.9489,10.6748-18.3743,0-36.1929-3.5964-52.9489-10.6748-12.3129-5.2018-23.7878-12.1981-34.0514-20.7611,22.543-28.8529,35.9804-65.1603,35.9804-104.6063s-13.4374-75.7534-35.9804-104.6063c10.2611-8.5665,21.7366-15.563,34.0514-20.761ZM280.6176,90.711c5.9172,8.2103,10.8909,17.061,14.827,26.3846,7.0784,16.756,10.6748,34.5582,10.6748,52.9489s-3.5964,36.1929-10.6748,52.9489c-3.9424,9.3257-8.9156,18.181-14.827,26.4009-5.9208-8.2139-10.8947-17.0703-14.827-26.4009-7.0784-16.7559-10.6748-34.5582-10.6748-52.9489s3.5964-36.1929,10.6748-52.9489c3.9425-9.3205,8.9158-18.1704,14.827-26.3846ZM34.0514,170.0609c0-18.3907,3.5964-36.1929,10.6748-52.9489,6.8495-16.2002,16.6579-30.7493,29.1636-43.2549s27.0547-22.314,43.2549-29.1635c16.756-7.0784,34.5582-10.6748,52.9489-10.6748s36.1929,3.5964,52.9489,10.6748c12.3749,5.2311,23.769,12.1951,34.0351,20.761-22.543,28.853-35.9641,65.1603-35.9641,104.6063s13.4374,75.7534,35.9641,104.6063c-10.2579,8.5628-21.7273,15.559-34.0351,20.7611-16.756,7.0784-34.5582,10.6748-52.9489,10.6748-18.3743,0-36.1929-3.5964-52.9489-10.6748-16.2001-6.8495-30.7492-16.6579-43.2549-29.1636s-22.3141-27.0547-29.1636-43.2549c-7.0784-16.756-10.6748-34.5582-10.6748-52.9489Z"/>
  <g>
    <path class="st0" d="M750.7984,837.5369l-34.7871,89.2399h18.5051l6.8332-19.11h36.9775l6.9803,19.11h19.2734l-34.8198-89.2399h-18.9628ZM746.5318,893.4121l8.6968-24.0142c1.9617-5.5908,3.531-10.8383,4.6917-15.7751,1.1934,4.9205,2.7627,10.1844,4.6917,15.7751l8.5823,24.0142h-26.6625Z"/>
    <polygon class="st0" points="969.2964 926.7768 969.2964 926.7605 969.2962 926.7605 969.2964 926.7768"/>
    <path class="st0" d="M945.135,874.5962c-2.9099,5.0186-5.0677,9.3669-6.4736,13.0615-1.5694-4.0378-3.7272-8.3698-6.4736-12.9962l-22.4448-37.1247h-18.8975v89.2399h16.8868v-48.9274c0-4.708-.278-10.6584-.8665-17.8676,2.7954,6.8005,5.5909,12.4404,8.4025,16.8868l17.6061,28.6405h11.1979l17.606-28.6241c3.1388-5.0676,5.9669-10.7728,8.517-17.1155-.6049,7.2255-.8991,13.2577-.8991,18.1128v48.8784h16.8867v-89.2399h-18.6032l-22.4448,37.0757Z"/>
    <polygon class="st0" points="205.2893 837.5369 193.5846 837.5369 167.2164 843.4546 167.2164 858.298 187.4707 853.8189 187.4707 912.0315 167.2491 912.0315 167.2491 926.7768 225.5108 926.7768 225.5108 912.0315 205.2893 912.0315 205.2893 837.5369"/>
    <polygon class="st0" points="418.4253 851.9226 443.2404 851.9226 443.2404 926.7768 461.059 926.7768 461.059 851.9226 485.8578 851.9226 485.8578 837.537 418.4253 837.537 418.4253 851.9226"/>
    <polygon class="st0" points="16.6906 926.7768 34.5091 926.7768 34.5091 890.6166 68.7731 890.6166 68.7731 876.2636 34.5091 876.2636 34.5091 851.9225 72.9907 851.9225 72.9907 837.5369 16.6906 837.5369 16.6906 926.7768"/>
    <polygon class="st0" points="591.8374 888.2135 627.8667 888.2135 627.8667 873.9096 591.8374 873.9096 591.8374 851.9225 633.7519 851.9225 633.7519 837.5369 574.0351 837.5369 574.0351 926.7768 634.2422 926.7768 634.2422 912.4239 591.8374 912.4239 591.8374 888.2135"/>
  </g>
  <g>
    <path class="st0" d="M846.8552,587.9302h.0163c0,9.8575-1.4876,18.4398-4.4464,25.5018-2.9261,7.0293-7.1111,12.4076-12.4567,16.004s-11.9009,5.4109-19.5023,5.4109c-10.8872,0-19.0936-3.5801-24.4065-10.6257-5.3619-7.1274-8.0919-17.9167-8.0919-32.0898v-82.2596h-38.0565v86.4772c0,13.4702,1.6838,24.8805,5.0023,33.937,3.3185,9.0727,7.8958,16.4617,13.5682,21.9543,5.6725,5.4763,12.3096,9.4324,19.7148,11.7701,7.3563,2.3213,15.2847,3.482,23.5401,3.482,11.9009,0,21.7419-2.1578,29.2617-6.4081,6.8495-3.8907,12.6038-8.4515,17.0993-13.5519l3.4166,18.1618h33.3975v-155.8224h-38.0566v78.0583Z"/>
    <path class="st0" d="M946.9495,466.9112h-38.0566v156.6071c0,14.3856,3.6128,25.3547,10.7566,32.5966,7.1437,7.2418,18.2599,10.92,33.0541,10.92h33.5937v-32.9399h-24.5863c-5.3456,0-9.1872-1.1769-11.4104-3.4984-2.0434-2.1251-3.3675-7.4871-3.3675-13.6663v-74.1024h39.3643v-32.9561h-39.3479v-42.9607Z"/>
    <path class="st0" d="M302.2287,517.1955l-.0327-.0163c-11.394-6.0485-24.9133-9.1054-40.198-9.1054s-28.9838,3.3675-40.6721,10.0209c-11.7047,6.6534-20.9082,16.0694-27.3654,27.9702-6.4408,11.8681-9.7103,26.0576-9.7103,42.1596s3.3185,29.6703,9.8738,41.5712c6.5553,11.9171,16.0203,21.2678,28.1337,27.8231,12.0807,6.5389,26.5643,9.8737,43.0588,9.8737,13.0778,0,24.8315-2.4521,34.9178-7.291,10.0863-4.855,18.3253-11.4594,24.4882-19.6331,5.8524-7.765,9.7921-16.5598,11.7211-26.123l.2125-1.0135h-37.844l-.1798.6212c-2.076,7.1274-6.1302,12.7672-12.0153,16.7559-6.3264,4.283-14.0914,6.4572-23.0987,6.4572-7.6342,0-14.5164-1.6347-20.4832-4.8551-5.9341-3.2041-10.5604-7.7813-13.7808-13.6337-3.2205-5.8524-5.0513-12.9144-5.4437-20.9081v-1.2424h114.3166l.1308-.7029c.3923-2.1906.6539-4.4628.7683-6.7351.0981-2.2068.1471-4.4302.1471-6.6534-.1961-15.1049-3.58-28.3788-10.0209-39.4787-6.4735-11.1161-15.5299-19.8129-26.924-25.8615ZM225.1021,569.654c.8664-6.4081,2.9915-11.9662,6.3264-16.5107,3.5147-4.7734,7.9939-8.5332,13.3558-11.1489,5.3619-2.6319,11.2469-3.9724,17.4916-3.9724,10.5603,0,19.3225,2.8608,26.0412,8.517v-.0165c6.5063,5.4763,10.5441,13.2413,12.0316,23.1315h-75.2466Z"/>
    <polygon class="st0" points="498.9521 509.8556 458.9829 509.8556 419.6349 624.352 380.2871 509.8556 340.3016 509.8556 397.1084 665.678 442.1616 665.678 498.9521 509.8556"/>
    <path class="st0" d="M56.5453,665.6943H17.0012v-159.9256h39.5441v159.9256ZM122.1142,576.3727c32.398-1.6182,58.4703-28.8492,58.4741-61.4751-.0051-33.9328-27.6298-61.5382-61.5963-61.5382H17.0175v34.1495h97.1193c15.3665,0,28.101,12.0807,28.3789,26.924.1682,7.3737-2.6635,14.5001-7.8467,19.7476-5.145,5.28-12.2118,8.2472-19.584,8.2227h-37.8276c-1.3405,0-2.4358,1.0953-2.4358,2.4357v30.3569c0,.5231.1635,1.0135.4578,1.4222l64.1958,89.06h46.9821l-64.343-89.3053Z"/>
    <polygon class="st0" points="180.5885 514.8905 180.5883 514.8976 180.5885 514.9069 180.5885 514.8905"/>
    <rect class="st0" x="678.1347" y="453.3593" width="38.0565" height="212.3187"/>
    <path class="st0" d="M619.9547,518.0946v-.0164c-11.999-6.6534-26.2374-10.0209-42.3232-10.0209s-30.079,3.3675-42.176,10.0209c-12.097,6.6697-21.6111,16.0694-28.2645,27.9702-6.6534,11.8845-10.0209,25.9758-10.0209,41.8654s3.3675,29.6866,10.0209,41.5712,16.1675,21.3005,28.2645,27.9702c12.097,6.6533,26.2864,10.0209,42.176,10.0209s30.3242-3.3676,42.3232-10.0209c11.999-6.6534,21.464-16.0695,28.1174-27.9539,6.6533-11.9009,10.0209-25.8778,10.0209-41.5712s-3.3676-29.981-10.0209-41.8654c-6.6534-11.9009-16.1184-21.3168-28.1174-27.9702ZM614.2658,612.6473c-3.4166,7.1274-8.2717,12.7836-14.4183,16.7723h.0001c-6.1302,3.9888-13.601,6.0158-22.216,6.0158s-15.8405-2.027-22.0688-6.0158c-6.2447-4.0051-11.1489-9.645-14.5491-16.7723-3.4329-7.1437-5.1821-15.4482-5.1821-24.7171s1.7492-17.8185,5.1821-24.8643c3.4166-7.0293,8.3208-12.6855,14.5654-16.7887,6.2283-4.0868,13.6499-6.163,22.0688-6.163s16.0695,2.0762,22.1996,6.163c6.1466,4.1032,11.0017,9.743,14.4183,16.7887,3.4329,7.0621,5.1657,15.4319,5.1657,24.8643s-1.7328,17.557-5.1657,24.7171Z"/>
  </g>

</svg>